<svg width="42" height="42" viewBox="0 0 42 42" fill="none" xmlns="http://www.w3.org/2000/svg">
<path d="M12.8795 20.7197L12.8803 20.7205C13.3631 21.2028 14.0176 21.4736 14.7 21.4736C15.3824 21.4736 16.0369 21.2028 16.5197 20.7205L16.5201 20.7201L18.425 18.8152V29.4C18.425 30.0829 18.6963 30.7379 19.1792 31.2208C19.6621 31.7037 20.3171 31.975 21 31.975C21.6829 31.975 22.3379 31.7037 22.8208 31.2208C23.3037 30.7379 23.575 30.0829 23.575 29.4V18.8152L25.469 20.7092C25.702 20.9554 25.9814 21.1533 26.2913 21.2914C26.6071 21.4321 26.9481 21.5078 27.2939 21.5139C27.6396 21.52 27.983 21.4564 28.3037 21.3269C28.6243 21.1974 28.9156 21.0046 29.1601 20.7601C29.4046 20.5156 29.5974 20.2243 29.7269 19.9037C29.8564 19.583 29.92 19.2396 29.9139 18.8939C29.9078 18.5481 29.8321 18.2071 29.6914 17.8913C29.5533 17.5815 29.3555 17.302 29.1092 17.069L22.8201 10.7799L22.8197 10.7795C22.3369 10.2972 21.6824 10.0264 21 10.0264C20.3176 10.0264 19.6631 10.2972 19.1803 10.7795L19.1799 10.7799L12.8799 17.0799L12.8795 17.0803C12.3972 17.5631 12.1264 18.2176 12.1264 18.9C12.1264 19.5824 12.3972 20.2369 12.8795 20.7197ZM21 1C32.046 1 41 9.95399 41 21C41 32.046 32.046 41 21 41C9.95399 41 1 32.046 1 21C1 9.95399 9.95399 1 21 1Z" stroke="#FFF72E" stroke-width="2"/>
</svg>
