<svg width="24" height="24" viewBox="0 0 24 24" fill="none" xmlns="http://www.w3.org/2000/svg">
<g clip-path="url(#clip0_30004_367)">
<path d="M22.1213 2H1.87865C0.842764 2 0 2.83591 0 3.86337V14.3016C0 15.329 0.842764 16.1649 1.87865 16.1649H7.1533V21.5341C7.1533 21.7914 7.36358 22 7.62299 22H16.3923C16.6517 22 16.862 21.7914 16.862 21.5341V16.1649H22.1213C23.1572 16.1649 24 15.329 24 14.3016V3.86337C24 2.83591 23.1572 2 22.1213 2ZM15.9226 9.53924V18.5776C14.6301 18.7601 13.6074 19.7826 13.4353 21.0683H10.5828C10.4106 19.7817 9.38651 18.7587 8.09267 18.5772V9.53924H15.9226ZM8.09263 19.5224C8.86765 19.6848 9.47745 20.2962 9.63167 21.0683H8.09263V19.5224ZM14.3864 21.0683C14.5404 20.2971 15.1489 19.6864 15.9226 19.523V21.0683H14.3864ZM23.0606 14.3016C23.0606 14.8153 22.6393 15.2332 22.1213 15.2332H16.8619V14.2061H19.726C20.7619 14.2061 21.6046 13.3702 21.6046 12.3427V5.82223C21.6046 4.79477 20.7619 3.95886 19.726 3.95886H14.1124C13.853 3.95886 13.6427 4.16743 13.6427 4.42473C13.6427 4.68198 13.853 4.89059 14.1124 4.89059H19.726C20.244 4.89059 20.6653 5.30852 20.6653 5.82227V12.3427C20.6653 12.8565 20.244 13.2744 19.726 13.2744H16.8619V9.53929H19.3111C19.5705 9.53929 19.7808 9.33072 19.7808 9.07342C19.7808 8.81613 19.5706 8.60756 19.3111 8.60756H4.68885C4.42944 8.60756 4.21916 8.81613 4.21916 9.07342C4.21916 9.33072 4.42944 9.53929 4.68885 9.53929H7.1533V13.2744H4.27396C3.75604 13.2744 3.33463 12.8565 3.33463 12.3427V5.82223C3.33463 5.30847 3.75604 4.89054 4.27396 4.89054H9.88761C10.147 4.89054 10.3573 4.68198 10.3573 4.42468C10.3573 4.16743 10.147 3.95882 9.88761 3.95882H4.27396C3.23807 3.95882 2.39531 4.79472 2.39531 5.82218V12.3427C2.39531 13.3701 3.23807 14.206 4.27396 14.206H7.1533V15.2332H1.87865C1.36073 15.2332 0.939326 14.8153 0.939326 14.3015V3.86337C0.939326 3.34961 1.36073 2.93168 1.87865 2.93168H22.1213C22.6392 2.93168 23.0606 3.34961 23.0606 3.86337V14.3016H23.0606Z" fill="white"/>
<path d="M11.5 17C12.8785 17 14 15.8785 14 14.5C14 13.1215 12.8785 12 11.5 12C10.1215 12 9 13.1215 9 14.5C9 15.8785 10.1215 17 11.5 17ZM11.5 12.8628C12.4028 12.8628 13.1372 13.5973 13.1372 14.5C13.1372 15.4028 12.4027 16.1372 11.5 16.1372C10.5972 16.1372 9.8628 15.4027 9.8628 14.5C9.8628 13.5973 10.5972 12.8628 11.5 12.8628Z" fill="white"/>
<path d="M12.5 5C12.7761 5 13 4.77614 13 4.5C13 4.22386 12.7761 4 12.5 4C12.2239 4 12 4.22386 12 4.5C12 4.77614 12.2239 5 12.5 5Z" fill="white"/>
</g>
<defs>
<clipPath id="clip0_30004_367">
<rect width="24" height="24" fill="white"/>
</clipPath>
</defs>
</svg>
