<svg width="24" height="24" viewBox="0 0 24 24" fill="none" xmlns="http://www.w3.org/2000/svg">
<g clip-path="url(#clip0_30004_352)">
<path d="M22.4207 10.1376H17.9474C18.1731 9.85805 18.2959 9.51272 18.2959 9.14836C18.2959 8.72667 18.1317 8.33025 17.8336 8.03213L15.4159 5.6145C15.2329 5.4315 14.9361 5.4315 14.753 5.6145C14.5699 5.79755 14.5699 6.09436 14.753 6.27745L17.1706 8.69508C17.2917 8.81616 17.3584 8.97717 17.3584 9.14841C17.3584 9.31964 17.2917 9.48066 17.1706 9.60173L9.60091 17.1714C9.47984 17.2925 9.31882 17.3592 9.14759 17.3592C8.97635 17.3592 8.81534 17.2925 8.69426 17.1714L1.12455 9.60169C0.87457 9.3517 0.87457 8.94497 1.12455 8.69498L8.69426 1.12528C8.81534 1.0042 8.97635 0.9375 9.14759 0.9375C9.31882 0.9375 9.47984 1.0042 9.60091 1.12528L11.7699 3.29423C11.953 3.47728 12.2497 3.47728 12.4328 3.29423C12.6159 3.11119 12.6159 2.81437 12.4328 2.63128L10.2639 0.462375C9.9657 0.164203 9.56927 0 9.14759 0C8.72595 0 8.32952 0.164203 8.03135 0.462375L0.461602 8.03208C-0.153867 8.64759 -0.153867 9.64908 0.461602 10.2646L8.03131 17.8343C8.32948 18.1325 8.7259 18.2967 9.14754 18.2967C9.5119 18.2967 9.85727 18.1738 10.1368 17.9482V22.4214C10.1368 23.2919 10.8449 24 11.7154 24H22.4206C23.291 24 23.9992 23.2919 23.9992 22.4214V11.7162C23.9993 10.8458 23.2911 10.1376 22.4207 10.1376ZM23.0618 22.4214C23.0618 22.7749 22.7741 23.0625 22.4207 23.0625H11.7154C11.362 23.0625 11.0743 22.7749 11.0743 22.4214V17.0238L17.0231 11.0751H22.4207C22.7741 11.0751 23.0618 11.3627 23.0618 11.7162V22.4214Z" fill="white"/>
<path d="M16.5 15C15.6729 15 15 15.6729 15 16.5C15 17.3271 15.6729 18 16.5 18C17.3271 18 18 17.3271 18 16.5C18 15.6729 17.3271 15 16.5 15ZM16.5 17.1267C16.1544 17.1267 15.8733 16.8456 15.8733 16.5C15.8733 16.1544 16.1544 15.8733 16.5 15.8733C16.8456 15.8733 17.1267 16.1544 17.1267 16.5C17.1267 16.8456 16.8456 17.1267 16.5 17.1267Z" fill="white"/>
<path d="M10.5606 8.43885C9.97556 7.85372 9.02375 7.85372 8.43875 8.43885C7.85375 9.02399 7.85375 9.97602 8.43875 10.5612C8.73127 10.8537 9.11542 11 9.49966 11C9.8838 11 10.2681 10.8537 10.5605 10.5612C10.8439 10.2777 11 9.90084 11 9.50001C11 9.09917 10.8439 8.72227 10.5606 8.43885ZM9.94294 9.94339C9.69854 10.1879 9.30081 10.1879 9.05642 9.94339C8.81198 9.69894 8.81198 9.30112 9.05642 9.05666C9.17862 8.93444 9.33916 8.87328 9.49966 8.87328C9.66015 8.87328 9.82074 8.9344 9.94294 9.05666C10.0613 9.17509 10.1265 9.33252 10.1265 9.50005C10.1266 9.66749 10.0613 9.82496 9.94294 9.94339Z" fill="white"/>
<path d="M8.43875 12.4388C7.85375 13.024 7.85375 13.976 8.43875 14.5612C8.73127 14.8537 9.11542 15 9.49966 15C9.8838 15 10.2681 14.8537 10.5605 14.5612C10.8439 14.2777 11 13.9008 11 13.5C11 13.0991 10.8439 12.7222 10.5606 12.4388C9.97561 11.8537 9.02375 11.8537 8.43875 12.4388ZM10.1266 13.5C10.1266 13.6675 10.0614 13.825 9.94294 13.9434C9.69854 14.1879 9.30081 14.1879 9.05642 13.9434C8.81198 13.6989 8.81198 13.3011 9.05642 13.0566C9.17862 12.9344 9.33916 12.8733 9.49966 12.8733C9.66015 12.8733 9.82074 12.9344 9.94294 13.0566C10.0613 13.1751 10.1266 13.3325 10.1266 13.5Z" fill="white"/>
<path d="M10.5606 3.43885C9.97556 2.85372 9.02375 2.85372 8.43875 3.43885C7.85375 4.02399 7.85375 4.97602 8.43875 5.56116C8.73127 5.85375 9.11542 6 9.49966 6C9.8838 6 10.2681 5.85366 10.5605 5.56116C10.8439 5.27774 11 4.90084 11 4.50001C11 4.09917 10.8439 3.72227 10.5606 3.43885ZM9.94294 4.94339C9.69854 5.18789 9.30081 5.18789 9.05642 4.94339C8.81198 4.69894 8.81198 4.30112 9.05642 4.05666C9.17862 3.93444 9.33916 3.87328 9.49966 3.87328C9.66015 3.87328 9.82074 3.93439 9.94294 4.05666C10.0613 4.17509 10.1265 4.33252 10.1265 4.50005C10.1266 4.66749 10.0613 4.82496 9.94294 4.94339Z" fill="white"/>
<path d="M3.43885 8.43882C2.85372 9.02397 2.85372 9.97601 3.43885 10.5612C3.7314 10.8537 4.11572 11 4.5 11C4.88428 11 5.2686 10.8537 5.56115 10.5612C6.14628 9.97601 6.14628 9.02397 5.56115 8.43882C4.97606 7.85373 4.02399 7.85373 3.43885 8.43882ZM4.94338 9.94338C4.69893 10.1879 4.30111 10.1879 4.05666 9.94338C3.81217 9.69892 3.81217 9.3011 4.05666 9.05664C4.17889 8.93442 4.33946 8.87326 4.5 8.87326C4.66053 8.87326 4.82116 8.93437 4.94334 9.05664C5.18783 9.3011 5.18783 9.69892 4.94338 9.94338Z" fill="white"/>
<path d="M12.4388 8.43884C11.8537 9.02399 11.8537 9.97604 12.4388 10.5612C12.7314 10.8538 13.1156 11 13.5 11C13.8842 11 14.2686 10.8537 14.5612 10.5612C15.1463 9.97604 15.1463 9.02399 14.5611 8.43884C13.976 7.85374 13.024 7.8537 12.4388 8.43884ZM13.9434 9.94341C13.6989 10.1879 13.3011 10.188 13.0566 9.94341C12.8122 9.69896 12.8122 9.30113 13.0566 9.05667C13.1789 8.93444 13.3394 8.87328 13.5 8.87328C13.6605 8.87328 13.8212 8.9344 13.9434 9.05667C14.1878 9.30113 14.1878 9.69896 13.9434 9.94341Z" fill="white"/>
<path d="M13.5 5C13.7761 5 14 4.77614 14 4.5C14 4.22386 13.7761 4 13.5 4C13.2239 4 13 4.22386 13 4.5C13 4.77614 13.2239 5 13.5 5Z" fill="white"/>
</g>
<defs>
<clipPath id="clip0_30004_352">
<rect width="24" height="24" fill="white"/>
</clipPath>
</defs>
</svg>
