<svg width="33" height="32" viewBox="0 0 33 32" fill="none" xmlns="http://www.w3.org/2000/svg">
<path d="M22.4993 0C20.7933 0.117999 18.7993 1.20999 17.6373 2.63198C16.5773 3.92198 15.7054 5.83797 16.0453 7.69995C17.9093 7.75795 19.8353 6.63996 20.9513 5.19397C21.9953 3.84798 22.7853 1.94399 22.4993 0Z" fill="white"/>
<path d="M29.2411 10.7343C27.6031 8.68027 25.3011 7.48828 23.1271 7.48828C20.2571 7.48828 19.0431 8.86227 17.0492 8.86227C14.9932 8.86227 13.4312 7.49228 10.9492 7.49228C8.5112 7.49228 5.91522 8.98227 4.26923 11.5303C1.95524 15.1182 2.35124 21.8642 6.10122 27.6102C7.44321 29.6662 9.2352 31.9781 11.5792 31.9981C13.6652 32.0181 14.2532 30.6601 17.0792 30.6461C19.9051 30.6301 20.4411 32.0161 22.5231 31.9941C24.8691 31.9761 26.7591 29.4142 28.1011 27.3582C29.0631 25.8842 29.4211 25.1422 30.1671 23.4782C24.7411 21.4122 23.8711 13.6962 29.2411 10.7343Z" fill="white"/>
</svg>
