<svg width="14" height="14" viewBox="0 0 14 14" fill="none" xmlns="http://www.w3.org/2000/svg">
<path d="M13.2486 10.742C13.4138 10.5765 13.5066 10.3522 13.5066 10.1184C13.5066 9.8846 13.4138 9.66034 13.2486 9.49489L7.36623 3.61254C7.20079 3.44731 6.97652 3.3545 6.7427 3.3545C6.50887 3.3545 6.28461 3.44731 6.11917 3.61254L0.236815 9.49489C0.0809558 9.66216 -0.00389573 9.88339 0.000137466 10.112C0.00417066 10.3406 0.096774 10.5587 0.258436 10.7203C0.420099 10.882 0.638198 10.9746 0.866788 10.9786C1.09538 10.9827 1.31661 10.8978 1.48387 10.742L6.7427 5.4846L12.0015 10.742C12.167 10.9072 12.3912 11 12.625 11C12.8589 11 13.0831 10.9072 13.2486 10.742Z" fill="#FFF72E"/>
</svg>
