<svg width="14" height="14" viewBox="0 0 14 14" fill="none" xmlns="http://www.w3.org/2000/svg">
<g clip-path="url(#clip0_30004_99)">
<path d="M12.2486 3.25805C12.4138 3.42349 12.5066 3.64775 12.5066 3.88158C12.5066 4.1154 12.4138 4.33966 12.2486 4.50511L6.36623 10.3875C6.20079 10.5527 5.97652 10.6455 5.7427 10.6455C5.50887 10.6455 5.28461 10.5527 5.11917 10.3875L-0.763185 4.50511C-0.919044 4.33784 -1.0039 4.11661 -0.999863 3.88802C-0.995829 3.65943 -0.903226 3.44133 -0.741564 3.27967C-0.579901 3.11801 -0.361802 3.0254 -0.133212 3.02137C0.0953776 3.01734 0.316608 3.10219 0.483873 3.25805L5.7427 8.5154L11.0015 3.25805C11.167 3.09281 11.3912 3 11.625 3C11.8589 3 12.0831 3.09281 12.2486 3.25805Z" fill="#FFF72E"/>
</g>
<defs>
<clipPath id="clip0_30004_99">
<rect width="14" height="14" fill="white" transform="matrix(1 0 0 -1 0 14)"/>
</clipPath>
</defs>
</svg>
